<svg xmlns="http://www.w3.org/2000/svg" viewBox="0 0 64 80" x="0px" y="0px"><path d="M63,50H1a1,1,0,0,1,0-2H63a1,1,0,0,1,0,2Z"/><path d="M63,47H1a1,1,0,0,1,0-2H63a1,1,0,0,1,0,2Z"/><path d="M63,30H1a1,1,0,0,1,0-2H63a1,1,0,0,1,0,2Z"/><path d="M63,55H43a.99943.99943,0,0,1-1-1V49a.99943.99943,0,0,1,1-1H63a1,1,0,0,1,0,2H44v3H63a1,1,0,0,1,0,2Z"/><path d="M43,55H21a.99943.99943,0,0,1-1-1V49a.99943.99943,0,0,1,1-1H43a.99943.99943,0,0,1,1,1v5A.99943.99943,0,0,1,43,55ZM22,53H42V50H22Z"/><path d="M21,55H1a1,1,0,0,1,0-2H20V50H1a1,1,0,0,1,0-2H21a.99943.99943,0,0,1,1,1v5A.99943.99943,0,0,1,21,55Z"/><path d="M54,60H32a.99943.99943,0,0,1-1-1V54a.99943.99943,0,0,1,1-1H54a.99943.99943,0,0,1,1,1v5A.99943.99943,0,0,1,54,60ZM33,58H53V55H33Z"/><path d="M32,60H10a.99943.99943,0,0,1-1-1V54a.99943.99943,0,0,1,1-1H32a.99943.99943,0,0,1,1,1v5A.99943.99943,0,0,1,32,60ZM11,58H31V55H11Z"/><path d="M10,60H1a1,1,0,0,1,0-2H9V55H1a1,1,0,0,1,0-2h9a.99943.99943,0,0,1,1,1v5A.99943.99943,0,0,1,10,60Z"/><path d="M63,60H54a.99943.99943,0,0,1-1-1V54a.99943.99943,0,0,1,1-1h9a1,1,0,0,1,0,2H55v3h8a1,1,0,0,1,0,2Z"/><path d="M57.999,47a.99943.99943,0,0,1-1-1V29a1,1,0,0,1,2,0V46A.99942.99942,0,0,1,57.999,47Z"/><path d="M47.999,47a.99943.99943,0,0,1-1-1V29a1,1,0,0,1,2,0V46A.99942.99942,0,0,1,47.999,47Z"/><path d="M37.999,47a.99943.99943,0,0,1-1-1V29a1,1,0,0,1,2,0V46A.99942.99942,0,0,1,37.999,47Z"/><path d="M27.999,47a.99943.99943,0,0,1-1-1V29a1,1,0,0,1,2,0V46A.99942.99942,0,0,1,27.999,47Z"/><path d="M17.999,47a.99943.99943,0,0,1-1-1V29a1,1,0,0,1,2,0V46A.99942.99942,0,0,1,17.999,47Z"/><path d="M7.999,47a.99943.99943,0,0,1-1-1V29a1,1,0,0,1,2,0V46A.99942.99942,0,0,1,7.999,47Z"/><path d="M21.999,47h-8a1.0001,1.0001,0,0,1-.99414-.88965l-1-9A1.0003,1.0003,0,0,1,12.999,36h10a1.00029,1.00029,0,0,1,.99414,1.11035l-1,9A1.0001,1.0001,0,0,1,21.999,47Zm-7.10449-2h6.209l.77832-7H14.11621Z"/><path d="M45.999,47a6,6,0,1,1,6-6,1,1,0,0,1-2,0,4,4,0,1,0-4,4,1,1,0,0,1,0,2Z"/><path d="M53.999,47a.99943.99943,0,0,1-1-1,2.0026,2.0026,0,0,0-2-2,1,1,0,0,1,0-2,4.004,4.004,0,0,1,4,4A.99942.99942,0,0,1,53.999,47Z"/><path d="M47.999,41a.99943.99943,0,0,1-1-1V5a1,1,0,0,1,2,0V40A.99942.99942,0,0,1,47.999,41Z"/><path d="M44.999,37a.99943.99943,0,0,1-1-1V5a1,1,0,0,1,2,0V36A.99942.99942,0,0,1,44.999,37Z"/><path d="M47.999,6h-3a1,1,0,0,1,0-2h3a1,1,0,0,1,0,2Z"/><path d="M50.999,44a.99943.99943,0,0,1-1-1V41a1,1,0,0,1,2,0v2A.99942.99942,0,0,1,50.999,44Z"/><path d="M27.999,25a10,10,0,1,1,10-10A10.01177,10.01177,0,0,1,27.999,25Zm0-18a8,8,0,1,0,8,8A8.00917,8.00917,0,0,0,27.999,7Z"/><path d="M27.999,20a4.004,4.004,0,0,1-4-4c0-1.94141,2.71192-5.0625,3.25586-5.668a1.03326,1.03326,0,0,1,1.48828,0C29.28711,10.9375,31.999,14.05859,31.999,16A4.004,4.004,0,0,1,27.999,20Zm0-7.45215c-1.06054,1.32617-2,2.81445-2,3.45215a2,2,0,0,0,4,0C29.999,15.3623,29.05957,13.874,27.999,12.54785Z"/><text x="0" y="79" fill="#000000" font-size="5px" font-weight="bold" font-family="'Helvetica Neue', Helvetica, Arial-Unicode, Arial, Sans-serif">Created by lastspark</text><text x="0" y="84" fill="#000000" font-size="5px" font-weight="bold" font-family="'Helvetica Neue', Helvetica, Arial-Unicode, Arial, Sans-serif">from the Noun Project</text></svg>