<svg xmlns="http://www.w3.org/2000/svg" viewBox="0 0 500 625" x="0px" y="0px"><path d="M350.77,331.69c-5.8-.48-16.64,1.61-21.25-2.91,0,0-77.56-63.07-77.56-63.07-9.91-9.6-32.7-5.7-45.05-6.43,10.91-7.97,8.77-21.69,8.86-33.59,0-1.38-1.12-2.5-2.5-2.5h-7.78c.25-.25,.51-.49,.76-.74,7.24,.21,15.43-.75,20.95-5.79,1.64-1.61,2.32-4.03,4.54-4.98,2.12-.9,4.59-.93,6.83-1.38,7.52-1.67,15.85-6.7,18.26-14.41,1.36-5.27-2.14-10.42-6.88-12.52-10.18-3.74-23.73,2.36-29.98,10.71-1.62,2.21-3.55,3.44-5.96,4.68-9.53,3.65-9.19,11.25-10.86,19.74-1.6,1.55-3.17,3.12-4.73,4.7h-4.53c.14-2.44-.05-4.99,.5-7.36,6.3-12.47,17.51-26.51,9.18-40.75-2.73-2.85-.47-6.16,.06-9.38,2.9-12.28-8.33-17.84-15.43-7.02-4.96,7.49-6.99,16.82-6.53,25.72,.19,13.49,9.69,25.12,7.23,38.78h-2.66c-2.45-2.71-5.23-5.13-7.94-7.59-2.41-11.87-6.55-15.26-15.8-22.19-10.95-24.89-38.66-15.37-31.96,1.67,1.99,4.96,5.37,8.76,10.5,10.51,2.22,.76,4.18,1.31,5.66,3.26,9.99,17.78,20.19,.17,32.48,14.34h-7.39c-1.38,0-2.5,1.12-2.5,2.5,.09,11.9-2.04,25.62,8.86,33.59H84.26c10.91-7.97,8.77-21.69,8.86-33.59,0-.99-.58-1.84-1.42-2.25,10.08-9.6,16.61-22.84,17.31-36.79-.75-6.03-11.28,1.04-14.23,2.3-5.42,3.06-10.32,7.06-14.33,11.82-.19-5.46-5.37-28.3-10.85-29.37-.81-.05-1.64,.28-2.18,1.18-5.12,8.39-8.99,17.74-10.1,27.57-5.64-6.53-13.02-11.44-21.01-14.6-2.24-.97-6.77-2.82-7.04,1.1,.73,14.2,7.45,27.9,18.06,37.34-1.34,.25-.43,16.05-.68,17.05,0,7.39,3.47,13.98,8.86,18.24-8.57-.87-16.45,5.53-16.39,14.33,0,0,0,143.67,0,143.67-8.56,9.07-6.22,21.69-4.65,27.1-6.03,2.04-10.24,5.45-12.52,10.15-4.25,9.38-.49,21.5,2.52,20.91,0,0,316.6,0,316.6,0,1.38,0,2.5-1.12,2.5-2.5,.16-28.42-.11-90.79,0-119.65h19.48c1.38,0,2.5-1.12,2.5-2.5,1.16-9.76-4.25-18.98-14.78-19.1Zm-140.33-123.89c1.95-3.66,6.66-4.59,9.82-6.9,3.65-2.94,5.64-7.51,10.06-9.56,4.09-2.31,9.18-4.34,13.94-4.2,7.21,.34,10.82,6.92,4.7,12.05-4.76,5.4-11.88,6.19-18.46,7.64-8.66,4.25-4.16,9.18-18.77,10.46,8.09-7.42,17.32-13.7,27.48-17.91,1.24-.52,2.14-1.65,1.75-3.08-.32-1.17-1.82-2.27-3.08-1.75-10.6,4.4-20.24,10.71-28.76,18.38,.21-1.75,.49-3.58,1.32-5.14Zm-23.19-18.15c-4.75-22.16,13.91-43.46,11.44-24.61-6.03,16.31,11.85,12.73-3.37,38.62,.08-3.86,2.69-26.48-3.62-24.9-1.38,.38-2.01,1.75-1.75,3.08,1.3,6.46,1.18,12.97,.68,19.49-1.34-3.83-2.67-7.66-3.38-11.67Zm-22.78,22.37c-14.5,3.32-9.76-8.26-21.51-11.04-12.57-4.66-11-20.98,4.08-17.12,6.94,1.86,8.44,9.36,12.8,14.01,4.27,3.45,9.91,6.4,11.6,11.99-5.17-4.09-10.59-7.87-16.21-11.31-2.75-1.68-5.27,2.64-2.52,4.32,4.61,2.82,9.06,5.88,13.35,9.15-.53-.01-1.05-.01-1.58,.01Zm9.82,29.02v-12.85c7.8,0,28.99,0,36.48,0v12.85c-.63,24.05-35.85,24.04-36.48,0Zm-71.84-50.32c.19-.08,.18-.07,0,0h0Zm-14.95,9.78c4.61-4.42,10.12-7.86,16.15-10.26-1.73,12.96-9,25.35-19.64,32.95h-8.93c1.87-8.73,6.03-16.55,12.43-22.7Zm-11.85,7.08c-2.78,4.83-4.66,10.14-5.67,15.62h-1.71c-1.12-5.88-3.2-11.57-6.33-16.69-.02-9.71,2.99-19.02,7.55-27.5,4.08,8.95,6.37,18.73,6.16,28.58Zm-41.05-17.33c14.25,5.43,25.75,17.81,28.58,32.95h-8.94c-10.64-7.6-17.91-19.98-19.64-32.95Zm17.03,50.8v-12.85c3.23,0,34.25,0,36.48,0v12.85c-.63,24.05-35.85,24.04-36.48,0Zm189.11,41.56l30.25,24.76v78.33h-32.47v-104.57c.78,.43,1.53,.92,2.22,1.49Zm87.76,83.44h9.74c.11,0,.21-.02,.32-.03v55.35h-10.06v-55.32Zm-5,55.32h-32.47c0-20.93,0-75.98,0-97.59,2.72,2,30.13,25.26,32.46,25.95v71.64Zm-47.52-97.2c1.4,.93,8.54,6.95,10.06,7.88v53.64h-10.06v-61.52Zm-52.53-34.43h10.06v60.27h-10.06v-60.27Zm-5,60.27h-39.73v-70.67h39.73v70.67Zm-54.78-60.27h10.06v60.27h-10.06v-60.27Zm-5,60.27h-39.73v-70.67h39.73v70.67Zm-54.78-60.27h10.06v60.27h-10.06v-60.27Zm-5,60.27H59.17v-70.67h39.73v70.67Zm-54.79-60.27h10.06v60.27h-10.06v-60.27Zm294.45,180.71h-112.74c-1.4-.53-7.71-3.29-13.32-11.75-5.95-8.97-16.62-9-23.94-7.16,1.02-15.04-16.71-24.63-29.28-16.73,3.5-21.68-23.03-33.12-38.52-22.12-8.49-30.88-52.38-23.17-60.3-1.58-3.36-1.01-9.64-1.92-16.35,2.14v-58.24H233.52v33.18c0,1.38,1.12,2.5,2.5,2.5,9.11,0,41.51,0,50.02,0v33.17c0,1.38,1.12,2.5,2.5,2.5h50.02v44.08Zm21.98-122.15c-7.67-.62-26.64,1.69-33.41-2.33-7.71-2.95-82.4-69.92-90.39-70.93-1.67-.45-3.4-.69-5.13-.7,0,0-187.5,0-187.5,0-.35-5.39,3.89-10.08,9.33-10.06,0,0,180.42,0,180.42,0,5.42,0,10.73,1.89,14.94,5.31l77.56,63.07h0c10.32,10.08,34.41-4.74,34.18,15.64Z"/><path d="M477.47,24.54h-155.34c-1.38,0-2.5,1.12-2.5,2.5-.19,7.28-.77,14.85,9.03,14.47v232.24c0,1.38,1.12,2.5,2.5,2.5h137.28c1.38,0,2.5-1.12,2.5-2.5V41.51c4.6,.58,9.07-2.59,9.03-7.43,0,0,0-7.04,0-7.04,0-1.38-1.12-2.5-2.5-2.5Zm-115.69,216.5v-12.85h31.25c.03,10.12,1.43,24.78-8.68,30.55-11.24,2.95-22.73-6.07-22.57-17.7Zm-3.49-49.81c6.24,3.5,11.65,8.44,16.33,13.89-.72,1.06-1.32,2.19-1.79,3.39-1.31-1.53-2.67-3.03-4.06-4.48-2.27-2.3-5.83,1.26-3.54,3.54,2.23,2.32,4.33,4.75,6.32,7.26-.04,1.31,.06,2.82,.36,4.3-11.32-4.43-15.48-16.51-13.62-27.89Zm29.27,29.33c2.62-7.42,6.11-14.51,10.4-21.13,1.76-2.71-2.57-5.22-4.32-2.52-4.5,6.93-8.13,14.4-10.87,22.19-4.16-15.38,8.14-29.25,21.17-35.59-.18,13.74-3.08,30.07-16.39,37.05Zm15.7,20.48v-15.35c0-1.38-1.12-2.5-2.5-2.5h-8.1c14.22-9.3,16.45-27.99,16.31-43.66-.01-2.06-2.08-2.89-3.76-2.16-11.24,4.86-22,13.6-26.27,25.16-2.44-3.37-22.13-22.98-24.88-15.71-3.57,13.83,.77,30.5,14.89,36.36h-9.67c-1.38,0-2.5,1.12-2.5,2.5,.09,11.9-2.04,25.62,8.86,33.59h-20.02v-94.55h108.35v94.55h-59.57c5.39-4.26,8.86-10.85,8.86-18.24Zm50.71-93.26h-33.13v-32.09h33.13v32.09Zm-38.13,0h-32.09v-32.09h32.09v32.09Zm-37.09,0h-33.13v-32.09h33.13v32.09Zm-33.13-37.09v-32.09h33.13v32.09h-33.13Zm0,49.02v-6.93h108.35v6.93h-108.35Zm108.35-49.02h-33.13v-32.09h33.13v32.09Zm-38.13,0h-32.09v-32.09h32.09v32.09Zm-32.09-37.09v-22.03h32.09v22.03h-32.09Zm-5-22.03v22.03h-33.13v-22.03h33.13Zm75.22,22.03h-33.13v-22.03h33.13v22.03Zm-120.32,197.65V51.56h6.97v210.22c0,1.38,1.12,2.5,2.5,2.5h113.35c1.38,0,2.5-1.12,2.5-2.5V51.56h6.97v219.68h-132.28ZM474.97,34.08c0,3.29-4.46,2.29-6.52,2.43-16.41,0-120.88,0-137.3,0-6.97,.25-6.65-.14-6.53-6.96h150.34v4.54Z"/><text x="0" y="515" fill="#000000" font-size="5px" font-weight="bold" font-family="'Helvetica Neue', Helvetica, Arial-Unicode, Arial, Sans-serif">Created by Maxicons</text><text x="0" y="520" fill="#000000" font-size="5px" font-weight="bold" font-family="'Helvetica Neue', Helvetica, Arial-Unicode, Arial, Sans-serif">from the Noun Project</text></svg>